<svg width="332" height="225" viewBox="0 0 332 225" fill="none" xmlns="http://www.w3.org/2000/svg">
<path d="M132.554 52.6763C128.639 52.8868 124.784 54.4419 121.793 57.3428C115.342 63.598 115.342 73.7393 121.793 79.9945C125.018 83.1219 129.245 84.6859 133.473 84.6859C137.701 84.6859 141.929 83.1219 145.154 79.9945C148.145 77.0937 149.749 73.3568 149.966 69.5598L132.554 52.6763ZM128.839 74.02H125.568L129.036 68.4154L130.628 70.9864L128.839 74.02ZM130.424 74.02L135.919 64.6974L141.413 74.02H130.424ZM146.446 68.0339C145.388 67.8566 144.353 67.5694 143.348 67.1747C141.471 66.4363 139.786 65.3514 138.34 63.9497C136.789 62.4458 135.618 60.6821 134.859 58.7074C134.53 57.8517 134.286 56.9774 134.127 56.0889L146.446 68.0339ZM147.341 74.5769C146.585 76.2449 145.521 77.7502 144.18 79.0509C142.735 80.4526 141.049 81.5379 139.172 82.276C137.357 82.9896 135.441 83.351 133.473 83.351C131.506 83.351 129.589 82.9896 127.775 82.276C125.897 81.5379 124.212 80.4526 122.767 79.0509C121.321 77.6486 120.201 76.0148 119.44 74.1944C118.704 72.4351 118.331 70.5762 118.331 68.6688C118.331 66.761 118.704 64.9021 119.44 63.1427C120.201 61.3224 121.321 59.6886 122.767 58.2863C124.107 56.9857 125.66 55.9551 127.38 55.2229C128.858 54.5933 130.418 54.2011 132.028 54.0531L132.562 54.5709C132.746 57.4404 133.723 60.2713 135.493 62.7281L131.409 69.6579L129.036 65.8208L123.136 75.3549H128.053H134.935H143.784L137.921 65.4062C140.796 67.9499 144.373 69.3317 148.012 69.5519L148.546 70.0707C148.394 71.6307 147.989 73.1438 147.341 74.5769Z" fill="url(#paint0_linear)" style="mix-blend-mode:multiply"/>
<path d="M274.348 46.2744L266.286 55.4278L265.551 56.2619L257.488 65.4152L274.759 79.719L282.822 70.5657L283.557 69.7315L291.619 60.5782L274.348 46.2744ZM274.639 78.238L259.015 65.2987L266.374 56.9439L281.998 69.8831L274.639 78.238ZM267.109 56.1098L274.468 47.7549L290.092 60.6942L282.733 69.049L267.109 56.1097L267.109 56.1098Z" fill="white"/>
<path d="M276.373 55.451L276.731 53.3719L271.606 55.0393L273.369 56.4992L275.837 58.5432L279.007 61.169L280.404 54.0477L276.373 55.451ZM273.763 55.4447L275.367 54.9202L275.204 55.8605L274.541 56.0892L273.763 55.4447ZM275.489 56.8741L278.987 55.6558L278.294 59.197L275.489 56.8741Z" fill="white"/>
<path d="M277.897 61.6258L271.316 56.1757C271.091 55.9891 270.747 56.0153 270.552 56.2362C270.36 56.454 270.387 56.7876 270.613 56.9742L277.193 62.4243C277.421 62.6129 277.762 62.5837 277.954 62.3658C278.148 62.145 278.125 61.8144 277.897 61.6258Z" fill="white"/>
<path d="M263.237 65.3483C263.011 65.1617 262.67 65.1853 262.475 65.4061C262.281 65.6269 262.31 65.9576 262.535 66.1442C262.763 66.3328 263.105 66.3095 263.299 66.0886C263.494 65.8678 263.464 65.5369 263.237 65.3483Z" fill="white"/>
<path d="M264.881 66.7096C264.656 66.5236 264.314 66.5472 264.12 66.7679C263.925 66.9887 263.955 67.3194 264.18 67.5055C264.407 67.6941 264.749 67.6708 264.943 67.45C265.138 67.2291 265.108 66.8982 264.881 66.7096Z" fill="white"/>
<path d="M266.528 68.0742C266.301 67.8856 265.959 67.9092 265.765 68.13C265.57 68.3508 265.6 68.6815 265.827 68.8701C266.052 69.0562 266.394 69.0329 266.588 68.812C266.783 68.5912 266.753 68.2603 266.528 68.0742Z" fill="white"/>
<path d="M268.172 69.4358C267.944 69.2472 267.602 69.2708 267.408 69.4916C267.213 69.7124 267.243 70.043 267.471 70.2316C267.695 70.4172 268.036 70.3939 268.231 70.1731C268.425 69.9523 268.396 69.6214 268.172 69.4358Z" fill="white"/>
<path d="M269.817 70.798C269.59 70.6094 269.25 70.635 269.056 70.8558C268.861 71.0766 268.889 71.4053 269.116 71.5939C269.344 71.7825 269.682 71.7562 269.876 71.5353C270.071 71.3145 270.045 70.9866 269.817 70.798Z" fill="white"/>
<path d="M267.759 67.7127L270.93 70.3384L272.324 63.2198L268.292 64.6234L268.653 62.5415L263.528 64.2088L265.291 65.6687L267.759 67.7127L267.759 67.7127ZM270.214 68.3691L267.409 66.0462L270.907 64.8282L270.214 68.3691ZM265.683 64.6168L267.287 64.0926L267.127 65.03L266.461 65.2614L265.683 64.6169L265.683 64.6168Z" fill="white"/>
<path d="M286.325 63.1239C286.301 62.8358 286.04 62.6192 285.743 62.6419L283.046 62.8504L282.961 61.8041C282.938 61.5161 282.676 61.2995 282.379 61.3222C282.082 61.3448 281.861 61.5954 281.882 61.8865L282.009 63.4529C282.035 63.7429 282.294 63.9575 282.591 63.9348L285.827 63.6881C286.125 63.6654 286.348 63.4119 286.325 63.1239Z" fill="white"/>
<path d="M273.989 72.5569C274.015 72.847 274.272 73.0642 274.571 73.0388L274.574 73.0408L275.65 72.9565L275.735 74.0027C275.759 74.2908 276.02 74.5074 276.317 74.4847C276.614 74.462 276.835 74.2111 276.814 73.9204L276.727 72.8768L277.806 72.7945C278.103 72.7718 278.326 72.5183 278.303 72.2305C278.279 71.9424 278.018 71.7259 277.721 71.7486L276.642 71.8306L276.559 70.7867L276.557 70.7847C276.534 70.4966 276.275 70.2821 275.975 70.3027C275.678 70.3251 275.455 70.5786 275.478 70.8667L275.563 71.9129L274.487 71.9926C274.187 72.0179 273.966 72.2688 273.989 72.5569Z" fill="white"/>
<path d="M254.875 162.329L255.53 160.737L255.748 160.206L255.966 159.676C254.472 159.098 253.746 157.437 254.348 155.975C254.95 154.512 256.655 153.793 258.15 154.371L258.368 153.841L258.587 153.31L259.242 151.719L257.962 142.614L251.126 142.428L250.9 146.031L238.433 141.206L232.32 156.06L244.787 160.885L242.393 163.648L247.482 168.077L254.875 162.329ZM244.02 163.53L245.677 161.619L246.728 160.406L245.224 159.823L233.841 155.419L239.081 142.687L250.464 147.092L251.968 147.674L252.067 146.093L252.223 143.6L256.938 143.728L258.042 151.581L257.439 153.045C255.684 152.895 253.956 153.873 253.264 155.555C252.571 157.237 253.13 159.1 254.509 160.163L253.907 161.627L247.53 166.586L244.02 163.53Z" fill="url(#paint1_linear)" style="mix-blend-mode:multiply"/>
<path d="M245.791 151.686L247.855 151.354L244.724 147.331L243.892 149.352L242.727 152.181L241.23 155.819L248.342 154.822L245.791 151.686ZM245.036 149.624L245.748 150.538L244.96 150.665L244.726 150.377L245.036 149.624L245.036 149.624ZM244.223 151.599L246.158 153.976L243.066 154.41L244.223 151.599Z" fill="url(#paint2_linear)" style="mix-blend-mode:multiply"/>
<g clip-path="url(#clip0)">
<path d="M25.4659 209.473L17.235 201.196L23.4725 194.924C24.716 193.674 24.716 191.647 23.4725 190.397C22.8508 189.772 22.0363 189.459 21.2219 189.459C20.4074 189.459 19.5921 189.772 18.9704 190.397L12.733 196.669L4.50209 188.392L0 192.919L8.23086 201.196L1.06081 208.406V212.933H5.56291L12.733 205.723L20.9638 214L25.4659 209.473ZM16.4843 200.442L15.3621 199.313L20.0997 194.55L21.2219 195.678L16.4843 200.442ZM19.7212 191.151C20.1221 190.748 20.6545 190.526 21.2219 190.526C21.7884 190.526 22.3215 190.748 22.7226 191.151C23.5494 191.983 23.5494 193.337 22.7226 194.169L21.9718 194.924L18.9704 191.905L19.7212 191.151ZM18.2205 192.66L19.3489 193.795L14.6122 198.559L13.483 197.424L18.2205 192.66ZM4.50209 189.901L5.98026 191.388L5.22951 192.142C5.0228 192.351 5.0228 192.689 5.22951 192.897C5.43702 193.105 5.77275 193.105 5.98026 192.897C5.98026 192.897 5.98026 192.896 5.98106 192.896L6.73021 192.142L8.23091 193.651L7.48096 194.406C7.27345 194.614 7.27345 194.952 7.48096 195.16C7.68767 195.369 8.0242 195.369 8.23091 195.16C8.23091 195.16 8.23091 195.16 8.23091 195.16L8.98166 194.406L10.4824 195.915L9.7324 196.669C9.7324 196.669 9.73161 196.669 9.73161 196.669C9.5249 196.878 9.5249 197.215 9.73161 197.424C9.93912 197.632 10.2748 197.632 10.4824 197.424V197.424L11.2323 196.669L12.733 198.178L11.983 198.933C11.7755 199.141 11.7755 199.479 11.983 199.687C12.1897 199.895 12.5254 199.895 12.733 199.687L13.4829 198.933L14.9836 200.442L14.2337 201.196C14.0261 201.404 14.0261 201.742 14.2337 201.951C14.4404 202.159 14.7769 202.159 14.9836 201.951C14.9844 201.95 14.9844 201.95 14.9844 201.95L15.7344 201.196L17.235 202.705L16.4843 203.459V203.46C16.2776 203.668 16.2776 204.006 16.4843 204.214C16.6918 204.423 17.0275 204.423 17.235 204.214L17.985 203.46L19.4857 204.969L18.7357 205.723C18.5282 205.932 18.5282 206.269 18.7357 206.477C18.9425 206.686 19.2782 206.686 19.4857 206.477C19.4857 206.477 19.4857 206.477 19.4857 206.477L20.2356 205.723L21.7363 207.232L20.9872 207.986L20.9864 207.987C20.7789 208.195 20.7789 208.533 20.9864 208.741C21.1939 208.949 21.5296 208.949 21.7363 208.741L22.4871 207.987L23.9653 209.473L20.9639 212.491L1.5007 192.919L4.50209 189.901ZM2.12163 211.866V210.982L3.0014 211.866H2.12163ZM5.12302 211.866H4.5013L2.12163 209.473V208.848L8.98161 201.951L10.1101 203.086L4.81604 208.41C4.60853 208.618 4.60853 208.956 4.81604 209.164C5.02275 209.372 5.35848 209.372 5.56599 209.164L10.8608 203.84L11.983 204.968L5.12302 211.866Z" fill="white"/>
</g>
<g clip-path="url(#clip1)">
<path d="M210.329 32.6019L202.099 24.3248L208.336 18.0523C209.579 16.8023 209.579 14.7755 208.336 13.5255C207.714 12.9003 206.9 12.5877 206.085 12.5877C205.271 12.5877 204.456 12.9003 203.834 13.5255L197.596 19.7981L189.366 11.521L184.864 16.0478L193.094 24.3248L185.924 31.5348V36.062H190.426L197.596 28.8516L205.827 37.1287L210.329 32.6019ZM201.348 23.5703L200.226 22.4419L204.963 17.6783L206.085 18.8068L201.348 23.5703ZM204.585 14.2796C204.986 13.8768 205.518 13.6548 206.085 13.6548C206.652 13.6548 207.185 13.8768 207.586 14.2796C208.413 15.1119 208.413 16.4658 207.586 17.2977L206.835 18.0523L203.834 15.0342L204.585 14.2796ZM203.084 15.7887L204.212 16.9238L199.476 21.6873L198.346 20.5526L203.084 15.7887ZM189.366 13.03L190.844 14.5164L190.093 15.271C189.886 15.4792 189.886 15.8172 190.093 16.0255C190.301 16.2338 190.636 16.2338 190.844 16.0255C190.844 16.0255 190.844 16.0251 190.845 16.0247L191.594 15.271L193.094 16.78L192.344 17.5346C192.137 17.7428 192.137 18.0808 192.344 18.2891C192.551 18.4973 192.888 18.4973 193.094 18.2891C193.094 18.2887 193.094 18.2887 193.094 18.2887L193.845 17.5346L195.346 19.0436L194.596 19.7973C194.596 19.7973 194.595 19.7977 194.595 19.7981C194.388 20.0064 194.388 20.344 194.595 20.5523C194.803 20.7609 195.138 20.7609 195.346 20.5523V20.5527L196.096 19.7981L197.596 21.3067L196.847 22.0613C196.639 22.2699 196.639 22.6075 196.847 22.8158C197.053 23.0241 197.389 23.0241 197.596 22.8158L198.346 22.0613L199.847 23.5703L199.097 24.3248C198.89 24.5331 198.89 24.8711 199.097 25.0794C199.304 25.2876 199.64 25.2876 199.847 25.0794C199.848 25.079 199.848 25.079 199.848 25.079L200.598 24.3248L202.099 25.8339L201.348 26.588V26.5884C201.141 26.7967 201.141 27.1343 201.348 27.343C201.555 27.5512 201.891 27.5512 202.099 27.343L202.849 26.5884L204.349 28.0975L203.599 28.8516C203.392 29.0603 203.392 29.3979 203.599 29.6061C203.806 29.8144 204.142 29.8148 204.349 29.6061C204.349 29.6061 204.349 29.6061 204.349 29.6057L205.099 28.8516L206.6 30.3607L205.851 31.1148L205.85 31.1152C205.642 31.3234 205.642 31.6614 205.85 31.8697C206.057 32.078 206.393 32.078 206.6 31.8697L207.351 31.1152L208.829 32.602L205.827 35.6197L186.364 16.0478L189.366 13.03ZM186.985 34.9949V34.111L187.865 34.9949H186.985ZM189.987 34.9949H189.365L186.985 32.6019V31.9771L193.845 25.0794L194.974 26.2145L189.68 31.5384C189.472 31.7466 189.472 32.0846 189.68 32.2929C189.886 32.5012 190.222 32.5012 190.43 32.2929L195.724 26.969L196.846 28.0971L189.987 34.9949Z" fill="url(#paint3_linear)" style="mix-blend-mode:multiply"/>
</g>
<path d="M205.451 202.288L200.719 206.732C200.501 206.936 200.496 207.273 200.706 207.484C200.917 207.696 201.265 207.701 201.483 207.497L206.215 203.053C206.433 202.848 206.438 202.511 206.227 202.299C206.016 202.089 205.669 202.083 205.451 202.288Z" fill="url(#paint4_linear)" style="mix-blend-mode:multiply"/>
<path d="M199.954 205.967L201.532 204.485C201.749 204.281 201.755 203.944 201.545 203.733C201.334 203.522 200.986 203.517 200.768 203.721L199.191 205.202C198.973 205.407 198.968 205.744 199.178 205.955C199.389 206.166 199.736 206.171 199.954 205.967Z" fill="url(#paint5_linear)" style="mix-blend-mode:multiply"/>
<path d="M211.344 194.863L209.446 194.372L210.554 198.979L212.056 197.568L214.159 195.593L216.864 193.053L210.385 191.232L211.344 194.863ZM211.183 196.906L210.931 195.858L211.655 196.046L211.743 196.38L211.183 196.906ZM212.651 195.527L211.925 192.774L214.74 193.564L212.651 195.527Z" fill="url(#paint6_linear)" style="mix-blend-mode:multiply"/>
<path d="M208.115 181.999L189.974 199.036C189.756 199.24 189.75 199.577 189.961 199.789L200.656 210.496C200.867 210.707 201.215 210.712 201.432 210.507L219.573 193.471C219.79 193.267 219.796 192.93 219.586 192.719L208.891 182.012C208.68 181.801 208.332 181.795 208.115 181.999ZM207.71 183.862L204.412 195.624C204.385 195.718 204.233 195.86 204.136 195.883L191.903 198.706L207.71 183.862ZM201.062 209.372L191.577 199.876L204.39 196.919C204.633 196.863 204.87 196.726 205.063 196.544C205.257 196.363 205.406 196.137 205.471 195.904L208.927 183.578L218.414 193.077L201.062 209.372Z" fill="url(#paint7_linear)" style="mix-blend-mode:multiply"/>
<path d="M167.886 12.1862C167.886 5.75751 162.538 0.546387 155.939 0.546387C153.763 0.546387 151.724 1.11329 149.966 2.10387C148.208 1.11336 146.168 0.546387 143.993 0.546387C137.394 0.546387 132.045 5.75751 132.045 12.1862C132.045 16.5294 134.487 20.3162 138.105 22.3165C138.815 28.0845 143.854 32.556 149.966 32.556C156.078 32.556 161.117 28.0845 161.827 22.3165C165.445 20.3162 167.886 16.5294 167.886 12.1862ZM139.746 23.0683C141.066 23.5575 142.496 23.826 143.993 23.826C146.168 23.826 148.208 23.2591 149.966 22.2685C151.724 23.259 153.763 23.826 155.939 23.826C157.435 23.826 158.866 23.5574 160.186 23.0683C160.049 23.6869 159.854 24.2922 159.599 24.88C159.073 26.0927 158.318 27.1824 157.358 28.118C156.397 29.0537 155.279 29.7885 154.035 30.3016C152.746 30.8323 151.378 31.1014 149.966 31.1014C148.554 31.1014 147.185 30.8324 145.897 30.3016C144.652 29.7885 143.534 29.0537 142.574 28.118C141.614 27.1824 140.859 26.0927 140.333 24.88C140.078 24.2922 139.882 23.6869 139.746 23.0683ZM160.408 21.3963C160.276 21.457 160.142 21.5156 160.008 21.5716C158.72 22.1022 157.351 22.3714 155.939 22.3714C154.527 22.3714 153.159 22.1023 151.871 21.5716C151.7 21.5007 151.531 21.4255 151.364 21.3467C154.058 19.2857 155.82 16.1212 155.932 12.5517C156.439 12.8954 156.916 13.2833 157.358 13.7144C158.318 14.65 159.073 15.7396 159.599 16.9519C160.143 18.2067 160.419 19.5404 160.419 20.9162C160.419 21.0771 160.416 21.237 160.408 21.3963ZM154.434 11.7061C154.442 11.8654 154.446 12.0253 154.446 12.1862C154.446 13.562 154.17 14.8957 153.626 16.15C153.098 17.3627 152.345 18.4524 151.384 19.388C150.944 19.8175 150.47 20.2038 149.966 20.5459C149.462 20.2038 148.988 19.8175 148.547 19.388C147.587 18.4524 146.833 17.3627 146.306 16.15C145.761 14.8957 145.486 13.562 145.486 12.1862C145.486 12.0253 145.49 11.8654 145.498 11.7061C145.629 11.6453 145.762 11.5868 145.897 11.5308C147.185 11.0001 148.554 10.731 149.966 10.731C151.378 10.731 152.746 11.0001 154.035 11.5308C154.169 11.5868 154.303 11.6453 154.434 11.7061ZM149.966 9.27638C148.471 9.27638 147.039 9.54497 145.72 10.0341C145.857 9.41545 146.051 8.81015 146.306 8.22244C146.833 7.00972 147.587 5.92004 148.547 4.98436C148.988 4.55489 149.462 4.16858 149.966 3.82648C150.47 4.16858 150.944 4.55489 151.385 4.98436C152.345 5.92004 153.099 7.00965 153.626 8.22244C153.881 8.81015 154.076 9.41545 154.212 10.0341C152.893 9.5449 151.461 9.27638 149.966 9.27638ZM143.999 12.5517C144.112 16.1212 145.874 19.2857 148.568 21.3467C148.401 21.4255 148.232 21.5007 148.061 21.5716C146.773 22.1022 145.405 22.3714 143.993 22.3714C142.581 22.3714 141.211 22.1023 139.924 21.5716C139.789 21.5156 139.656 21.457 139.524 21.3963C139.516 21.237 139.513 21.0771 139.513 20.9162C139.513 19.5404 139.788 18.2067 140.333 16.9524C140.859 15.7397 141.614 14.65 142.574 13.7144C143.016 13.2833 143.493 12.8954 143.999 12.5517ZM148.568 3.02571C146.137 4.88533 144.465 7.64326 144.079 10.7859C140.563 12.7297 138.159 16.3615 138.025 20.5507C137.519 20.207 137.043 19.8191 136.601 19.388C135.64 18.4524 134.886 17.3627 134.36 16.15C133.815 14.8957 133.538 13.562 133.538 12.1862C133.538 10.8104 133.815 9.4767 134.36 8.22244C134.886 7.00972 135.64 5.92004 136.601 4.98436C137.561 4.04868 138.679 3.31393 139.924 2.80077C141.211 2.27008 142.581 2.00095 143.993 2.00095C145.405 2.00095 146.773 2.27002 148.06 2.80077C148.232 2.8717 148.401 2.94679 148.568 3.02571ZM165.572 8.22244C166.117 9.47676 166.393 10.8104 166.393 12.1862C166.393 13.562 166.117 14.8957 165.572 16.15C165.046 17.3627 164.292 18.4524 163.331 19.388C162.889 19.8191 162.413 20.207 161.907 20.5507C161.773 16.3615 159.369 12.7297 155.853 10.7859C155.466 7.64326 153.795 4.88526 151.364 3.02571C151.531 2.94686 151.7 2.8717 151.871 2.80084C153.159 2.27015 154.527 2.00102 155.939 2.00102C157.351 2.00102 158.72 2.27008 160.008 2.80084C161.253 3.31393 162.37 4.04875 163.331 4.98443C164.292 5.92004 165.046 7.00972 165.572 8.22244Z" fill="url(#paint8_linear)" style="mix-blend-mode:multiply"/>
<path d="M64.1824 37.9582L71.1104 42.5795L74.0796 44.5602L81.0083 49.182L98.3391 26.8087L79.5342 14.2648L64.1824 37.9582ZM65.8123 37.6313L67.092 35.6574L73.153 39.7004L71.7913 41.6197L65.8123 37.6313ZM72.7816 42.2802L75.5049 38.4416L76.4944 39.1017L73.7711 42.9403L72.7816 42.2802ZM74.7606 43.6003L76.1222 41.681L82.1839 45.7245L80.7396 47.5887L74.7606 43.6003ZM96.6263 27.0808L82.9062 44.7923L76.8032 40.7212L78.1649 38.8019C78.3529 38.5369 78.2841 38.1747 78.0108 37.9924C77.7376 37.8101 77.3634 37.8768 77.1754 38.1419C77.3634 37.8768 77.2939 37.5142 77.0206 37.3319C76.7473 37.1495 76.3739 37.2168 76.1859 37.4818C76.3739 37.2168 76.3044 36.8541 76.0311 36.6718C75.7578 36.4895 75.3837 36.5563 75.1956 36.8213L73.834 38.7406L67.7317 34.67L79.8845 15.913L96.6263 27.0808Z" fill="white"/>
<path d="M78.5625 32.4683L83.8022 30.0203L83.6182 32.8779L90.2961 29.9261L87.7038 28.1969L84.0749 25.7762L79.4087 22.6636L78.5625 32.4683ZM87.8664 29.7199L84.9416 31.0124L85.0424 29.4403L86.4571 28.78L87.8663 29.72L87.8664 29.7199ZM85.3169 28.0193L79.9349 30.5338L80.4331 24.7616L85.3169 28.0193Z" fill="white"/>
<g clip-path="url(#clip2)">
<path d="M310.576 139.227C310.576 137.17 308.856 135.502 306.734 135.502C306.45 135.502 306.174 135.532 305.907 135.589L303.361 133.12L310.27 126.42C311.467 125.26 311.467 123.378 310.27 122.217C309.672 121.637 308.888 121.347 308.104 121.347C307.32 121.347 306.535 121.637 305.936 122.217L299.027 128.917L291.158 121.286C290.759 120.9 290.236 120.706 289.713 120.706C289.19 120.706 288.667 120.9 288.268 121.286C287.47 122.06 287.47 123.314 288.268 124.088L296.138 131.719L288.694 138.937V143.139H293.028L300.472 135.921L302.995 138.368C302.928 138.644 302.892 138.931 302.892 139.227C302.892 143.445 309.308 143.78 311.43 143.78C313.551 143.78 310.576 141.284 310.576 139.227ZM308.104 122.338C308.649 122.338 309.162 122.544 309.548 122.918C310.344 123.69 310.344 124.947 309.548 125.72L308.826 126.42L305.936 123.618L306.659 122.918C307.045 122.544 307.558 122.338 308.104 122.338ZM288.99 123.388C288.592 123.002 288.592 122.373 288.99 121.987C289.183 121.8 289.44 121.697 289.713 121.697C289.986 121.697 290.242 121.8 290.435 121.987L298.305 129.618L296.86 131.018L288.99 123.388ZM289.716 142.148V141.328L290.562 142.148H289.716ZM292.605 142.148H292.007L289.716 139.927V139.347L305.214 124.319L306.301 125.372L292.309 138.939C292.109 139.133 292.109 139.447 292.309 139.64C292.508 139.833 292.832 139.833 293.031 139.64L307.023 126.073L308.104 127.12L292.605 142.148ZM301.194 135.221L302.638 133.82L304.86 135.974C304.256 136.303 303.752 136.784 303.405 137.366L301.194 135.221ZM306.692 142.147C305.803 141.856 305.118 141.478 304.656 141.023C304.157 140.532 303.914 139.944 303.914 139.227C303.914 138.496 304.207 137.81 304.74 137.293C305.273 136.777 305.981 136.493 306.734 136.493C308.289 136.493 309.554 137.719 309.554 139.227C309.554 140.355 310.174 141.454 310.672 142.338C310.746 142.47 310.836 142.629 310.919 142.783C309.818 142.755 308.152 142.624 306.692 142.147Z" fill="url(#paint9_linear)" style="mix-blend-mode:multiply"/>
</g>
<g clip-path="url(#clip3)">
<path d="M226.067 104.301L271.24 116.711L273.989 107.306L228.816 94.8943L226.067 104.301ZM270.082 114.701L266.896 113.824L267.355 112.257C267.481 111.824 267.222 111.374 266.775 111.25C266.329 111.129 265.865 111.38 265.737 111.812C265.738 111.814 265.738 111.814 265.738 111.814L265.28 113.38L262.047 112.492L262.504 110.925C262.631 110.492 262.372 110.041 261.925 109.919C261.479 109.796 261.013 110.047 260.888 110.48L260.43 112.048L257.196 111.16L257.654 109.592L257.654 109.592C257.781 109.159 257.521 108.708 257.075 108.586C256.628 108.463 256.164 108.715 256.038 109.148C256.037 109.148 256.037 109.148 256.037 109.148L255.579 110.715L252.346 109.827L252.804 108.259C252.93 107.826 252.671 107.376 252.224 107.253C251.778 107.131 251.314 107.383 251.187 107.815L250.729 109.383L247.495 108.495L247.954 106.927C248.08 106.494 247.821 106.044 247.374 105.921C246.927 105.798 246.463 106.049 246.337 106.483L245.879 108.051L242.646 107.162L243.103 105.594C243.23 105.162 242.97 104.711 242.524 104.588C242.077 104.466 241.613 104.717 241.487 105.15C241.486 105.151 241.486 105.151 241.486 105.151L241.028 106.717L237.795 105.829L238.253 104.262C238.379 103.829 238.12 103.378 237.674 103.255C237.228 103.133 236.763 103.385 236.636 103.817C236.636 103.817 236.636 103.817 236.637 103.818L236.178 105.385L232.945 104.497L233.402 102.93C233.402 102.93 233.403 102.93 233.403 102.93C233.529 102.496 233.27 102.046 232.823 101.923C232.377 101.8 231.912 102.052 231.786 102.485L231.327 104.052L228.142 103.177L229.974 96.9063L271.914 108.429L270.082 114.701Z" fill="url(#paint10_linear)" style="mix-blend-mode:multiply"/>
</g>
<path d="M262.434 26.8704L249.184 10.9521C249.026 10.7615 248.737 10.7314 248.54 10.8857L237.12 19.8225C236.923 19.9768 236.893 20.2568 237.051 20.4474L241.831 26.1904L239.345 27.4519L239.23 27.3135C239.072 27.1229 238.783 27.093 238.585 27.2473C238.388 27.4015 238.358 27.6816 238.516 27.8722L243.125 33.4094C243.284 33.6 243.573 33.6301 243.77 33.4759C243.967 33.3216 243.998 33.0414 243.839 32.8508L243.723 32.7119L245.52 30.6216L250.3 36.3656C250.459 36.5562 250.748 36.5863 250.945 36.4321L262.365 27.4952C262.562 27.341 262.592 27.0609 262.434 26.8704ZM239.933 28.1581L242.416 26.8983L244.93 29.9177L243.136 32.0063L239.933 28.1581L239.933 28.1581ZM261.431 27.0822L252.153 34.3433L239.481 19.1185L248.759 11.8575L261.431 27.0822ZM244.389 27.8481L238.053 20.2357L238.767 19.6771L245.103 27.2895L251.439 34.9019L250.725 35.4605L244.389 27.8481Z" fill="url(#paint11_linear)" style="mix-blend-mode:multiply"/>
<path d="M245.034 27.9147C245.231 27.7604 245.262 27.4809 245.103 27.2898C244.944 27.0987 244.656 27.0691 244.459 27.2233C244.262 27.3775 244.23 27.6573 244.389 27.8484C244.548 28.0395 244.837 28.0689 245.034 27.9147Z" fill="url(#paint12_linear)" style="mix-blend-mode:multiply"/>
<path d="M248.197 14.0125L256.836 24.3925C256.836 24.3925 256.837 24.393 256.837 24.3935C256.996 24.5841 257.285 24.6142 257.482 24.46C257.679 24.3058 257.71 24.0255 257.551 23.8349L248.911 13.4539C248.751 13.2623 248.462 13.2324 248.265 13.3866C248.068 13.5408 248.037 13.8209 248.197 14.0125Z" fill="url(#paint13_linear)" style="mix-blend-mode:multiply"/>
<path d="M246.77 15.13L251.377 20.6657C251.378 20.6662 251.378 20.6662 251.378 20.6662C251.537 20.8573 251.825 20.8869 252.022 20.7327C252.219 20.5784 252.25 20.2989 252.091 20.1078L247.483 14.5716C247.324 14.38 247.035 14.3498 246.838 14.5041C246.641 14.6583 246.61 14.9384 246.77 15.13Z" fill="url(#paint14_linear)" style="mix-blend-mode:multiply"/>
<path d="M245.34 16.2471L251.676 23.859C251.676 23.8596 251.676 23.8596 251.676 23.8596C251.836 24.0507 252.124 24.0803 252.321 23.926C252.518 23.7718 252.549 23.492 252.39 23.3009L246.054 15.6885C245.895 15.4969 245.606 15.4668 245.409 15.621C245.212 15.7754 245.181 16.0555 245.34 16.2471Z" fill="url(#paint15_linear)" style="mix-blend-mode:multiply"/>
<path d="M243.914 17.3641L247.946 22.2079C248.105 22.3995 248.394 22.4296 248.591 22.2754C248.788 22.1211 248.819 21.8411 248.659 21.6494L244.628 16.8055C244.468 16.6139 244.179 16.5839 243.982 16.7382C243.785 16.8924 243.755 17.1725 243.914 17.3641Z" fill="url(#paint16_linear)" style="mix-blend-mode:multiply"/>
<path d="M242.487 18.4811L249.974 27.4772L249.974 27.4774C250.134 27.669 250.423 27.699 250.62 27.5448C250.817 27.3905 250.848 27.1104 250.688 26.9188L243.2 17.9227C243.041 17.7311 242.752 17.7009 242.555 17.8551C242.358 18.0094 242.327 18.2895 242.487 18.4811Z" fill="url(#paint17_linear)" style="mix-blend-mode:multiply"/>
<path d="M241.059 19.5985L243.362 22.366C243.522 22.5576 243.811 22.5878 244.008 22.4336C244.205 22.2793 244.236 21.999 244.076 21.8074L241.773 19.0398C241.613 18.8482 241.324 18.8181 241.127 18.9723C240.93 19.1267 240.899 19.4069 241.059 19.5985Z" fill="url(#paint18_linear)" style="mix-blend-mode:multiply"/>
<path d="M177.992 140.579L174.408 136.92L170.328 148.818L175.739 147.648L183.315 146.009L193.054 143.903L181.017 131.085L177.992 140.579ZM173.026 146.455L175.166 140.215L177.386 142.481L176.349 145.737L173.026 146.455ZM178.362 145.301L181.802 134.501L189.653 142.859L178.362 145.301Z" fill="white"/>
<path d="M187.022 117.683L186.624 115.952C186.514 115.473 186.034 115.171 185.552 115.275C185.068 115.38 184.766 115.851 184.876 116.329L185.274 118.061L181.778 118.817L181.379 117.086C181.269 116.608 180.79 116.305 180.307 116.409C179.823 116.514 179.522 116.986 179.632 117.464L180.03 119.195L176.534 119.951L176.136 118.22C176.026 117.742 175.545 117.439 175.063 117.543C174.579 117.648 174.277 118.12 174.387 118.598L174.785 120.329L171.289 121.085L170.891 119.354C170.781 118.876 170.301 118.573 169.818 118.678C169.335 118.782 169.033 119.254 169.143 119.732L169.541 121.464L166.045 122.22L165.647 120.488C165.537 120.01 165.056 119.707 164.574 119.812C164.09 119.916 163.788 120.388 163.898 120.866L164.296 122.598L159.052 123.732L167.813 161.819L201.027 154.635L192.267 116.549L187.022 117.683ZM198.889 153.317L169.171 159.745L161.19 125.049L164.686 124.293L165.068 125.952C165.178 126.43 165.658 126.733 166.142 126.629C166.624 126.524 166.926 126.052 166.816 125.574L166.435 123.915L169.931 123.159L170.312 124.818C170.422 125.296 170.903 125.599 171.386 125.494C171.869 125.39 172.171 124.917 172.061 124.439L171.679 122.781L175.175 122.025L175.557 123.683C175.667 124.161 176.147 124.465 176.631 124.36C177.113 124.256 177.415 123.783 177.305 123.305L176.924 121.646L180.42 120.89L180.801 122.549C180.911 123.027 181.391 123.331 181.875 123.226C182.358 123.121 182.659 122.649 182.549 122.171L182.168 120.512L185.664 119.756L186.046 121.415C186.156 121.893 186.636 122.196 187.12 122.092C187.602 121.987 187.904 121.515 187.794 121.037L187.412 119.378L190.909 118.622L198.889 153.317Z" fill="white"/>
<path d="M197.343 50.3302L175.898 68.6262C175.641 68.8459 175.615 69.2264 175.842 69.4761L188.968 83.9416C189.194 84.1912 189.587 84.2152 189.844 83.9956L197.582 77.3945L199.485 80.5828L199.298 80.7419C199.041 80.9615 199.016 81.3424 199.242 81.5921C199.469 81.8417 199.861 81.8657 200.119 81.646L207.578 75.2821C207.836 75.0624 207.86 74.6825 207.634 74.4328C207.407 74.1831 207.015 74.1582 206.758 74.3779L206.571 74.5369L203.551 72.3018L211.289 65.6996C211.547 65.48 211.571 65.1 211.345 64.8504L198.219 50.3849C197.993 50.1352 197.601 50.1106 197.343 50.3302ZM200.435 79.7717L198.535 76.5877L202.603 73.1149L205.621 75.348L200.435 79.7718L200.435 79.7717ZM201.799 56.1527L199.002 58.5391L194.9 54.0188L197.697 51.6324L201.799 56.1527ZM199.822 59.4433L202.619 57.0569L208.362 63.3853L205.565 65.7717L199.822 59.4433ZM193.968 54.814L204.633 66.5669L187.85 80.8854L177.185 69.1325L193.968 54.814ZM199.746 73.944L189.491 82.6938L188.67 81.7896L198.926 73.0398L209.182 64.2895L210.003 65.1937L199.746 73.944Z" fill="url(#paint19_linear)" style="mix-blend-mode:multiply"/>
<path d="M199.801 73.0939C199.575 72.8443 199.183 72.8197 198.925 73.0399C198.667 73.2596 198.643 73.6395 198.869 73.8892C199.096 74.1388 199.488 74.1637 199.745 73.9441C200.003 73.7239 200.028 73.3436 199.801 73.0939Z" fill="url(#paint20_linear)" style="mix-blend-mode:multiply"/>
<path d="M193.484 69.6464L196.681 66.9192L189.464 64.5215L190.343 68.675L188.227 68.0205L189.221 73.2831L190.998 71.7677L193.484 69.6464ZM191.117 66.3438L194.253 67.3859L191.784 69.4926L191.117 66.3438ZM190.048 70.9736L189.822 69.7778L190.629 70.0275L190.71 70.4091L190.048 70.9736Z" fill="url(#paint21_linear)" style="mix-blend-mode:multiply"/>
<path d="M182.554 67.7584L181.622 68.5537L182.442 69.4579L183.374 68.6626L182.554 67.7584Z" fill="url(#paint22_linear)" style="mix-blend-mode:multiply"/>
<path d="M187.681 63.3839L186.749 64.1792L187.57 65.0834L188.502 64.2881L187.681 63.3839Z" fill="url(#paint23_linear)" style="mix-blend-mode:multiply"/>
<path d="M192.809 59.0088L191.876 59.8047L192.697 60.7089L193.63 59.913L192.809 59.0088Z" fill="url(#paint24_linear)" style="mix-blend-mode:multiply"/>
<path d="M196.092 62.6248L195.159 63.4207L195.979 64.3245L196.912 63.5286L196.092 62.6248Z" fill="url(#paint25_linear)" style="mix-blend-mode:multiply"/>
<path d="M199.374 66.2412L198.441 67.0371L199.261 67.9413L200.194 67.1454L199.374 66.2412Z" fill="url(#paint26_linear)" style="mix-blend-mode:multiply"/>
<path d="M189.118 74.9911L188.186 75.7864L189.007 76.6906L189.939 75.8953L189.118 74.9911Z" fill="url(#paint27_linear)" style="mix-blend-mode:multiply"/>
<path d="M185.836 71.3749L184.904 72.1702L185.724 73.074L186.656 72.2788L185.836 71.3749Z" fill="url(#paint28_linear)" style="mix-blend-mode:multiply"/>
<path d="M194.246 70.6166L193.313 71.4119L194.134 72.3161L195.066 71.5208L194.246 70.6166Z" fill="url(#paint29_linear)" style="mix-blend-mode:multiply"/>
<path d="M327 86.9723C327 91.8958 322.84 96.148 317.381 96.148C311.922 96.148 307.761 91.8958 307.761 86.9723C307.761 82.0488 311.922 77.7966 317.381 77.7966C322.84 77.7966 327 82.0488 327 86.9723Z" stroke="url(#paint30_linear)" stroke-width="10" style="mix-blend-mode:multiply"/>
<path d="M260.511 218.156V214.577H254.902V208.272H251.029V214.577H245.42V218.156H251.029V224.734H254.902V218.156H260.511Z" fill="white"/>
<path d="M319.924 41.4999C319.425 41.7469 315.86 45.1658 314.662 39.3005C313.464 33.4352 310.139 33.0929 304.775 34.4209C299.411 35.7489 297.345 32.9074 296.168 30.4535" stroke="url(#paint31_linear)" stroke-width="8" stroke-linecap="round" stroke-linejoin="round" style="mix-blend-mode:multiply"/>
<defs>
<linearGradient id="paint0_linear" x1="149.537" y1="53.4504" x2="112.663" y2="64.6588" gradientUnits="userSpaceOnUse">
<stop stop-color="#FF8000"/>
<stop offset="1" stop-color="#FF8A00"/>
</linearGradient>
<linearGradient id="paint1_linear" x1="251.43" y1="169.221" x2="252.555" y2="137.733" gradientUnits="userSpaceOnUse">
<stop stop-color="#FF8000"/>
<stop offset="1" stop-color="#FF8A00"/>
</linearGradient>
<linearGradient id="paint2_linear" x1="246.917" y1="157.892" x2="246.521" y2="147.715" gradientUnits="userSpaceOnUse">
<stop stop-color="#FF8000"/>
<stop offset="1" stop-color="#FF8A00"/>
</linearGradient>
<linearGradient id="paint3_linear" x1="209.998" y1="12.1403" x2="181.383" y2="20.5278" gradientUnits="userSpaceOnUse">
<stop stop-color="#FF8000"/>
<stop offset="1" stop-color="#FF8A00"/>
</linearGradient>
<linearGradient id="paint4_linear" x1="205.792" y1="202.003" x2="207.002" y2="205.795" gradientUnits="userSpaceOnUse">
<stop stop-color="#FF8000"/>
<stop offset="1" stop-color="#FF8A00"/>
</linearGradient>
<linearGradient id="paint5_linear" x1="201.151" y1="203.398" x2="200.933" y2="206.309" gradientUnits="userSpaceOnUse">
<stop stop-color="#FF8000"/>
<stop offset="1" stop-color="#FF8A00"/>
</linearGradient>
<linearGradient id="paint6_linear" x1="212.806" y1="189.15" x2="209.314" y2="198.034" gradientUnits="userSpaceOnUse">
<stop stop-color="#FF8000"/>
<stop offset="1" stop-color="#FF8A00"/>
</linearGradient>
<linearGradient id="paint7_linear" x1="208.54" y1="182.138" x2="198.816" y2="208.722" gradientUnits="userSpaceOnUse">
<stop stop-color="#FF8000"/>
<stop offset="1" stop-color="#FF8A00"/>
</linearGradient>
<linearGradient id="paint8_linear" x1="167.42" y1="1.3205" x2="127.982" y2="14.336" gradientUnits="userSpaceOnUse">
<stop stop-color="#FF8000"/>
<stop offset="1" stop-color="#FF8A00"/>
</linearGradient>
<linearGradient id="paint9_linear" x1="311.874" y1="121.264" x2="284.624" y2="129.8" gradientUnits="userSpaceOnUse">
<stop stop-color="#FF8000"/>
<stop offset="1" stop-color="#FF8A00"/>
</linearGradient>
<linearGradient id="paint10_linear" x1="223.698" y1="98.2475" x2="256.407" y2="131.277" gradientUnits="userSpaceOnUse">
<stop stop-color="#FF8000"/>
<stop offset="1" stop-color="#FF8A00"/>
</linearGradient>
<linearGradient id="paint11_linear" x1="262.179" y1="27.2838" x2="241.092" y2="13.4414" gradientUnits="userSpaceOnUse">
<stop stop-color="#FF8000"/>
<stop offset="1" stop-color="#FF8A00"/>
</linearGradient>
<linearGradient id="paint12_linear" x1="245.366" y1="27.64" x2="244.502" y2="27.0232" gradientUnits="userSpaceOnUse">
<stop stop-color="#FF8000"/>
<stop offset="1" stop-color="#FF8A00"/>
</linearGradient>
<linearGradient id="paint13_linear" x1="257.702" y1="24.0501" x2="254.432" y2="25.7631" gradientUnits="userSpaceOnUse">
<stop stop-color="#FF8000"/>
<stop offset="1" stop-color="#FF8A00"/>
</linearGradient>
<linearGradient id="paint14_linear" x1="252.294" y1="20.386" x2="248.942" y2="21.5265" gradientUnits="userSpaceOnUse">
<stop stop-color="#FF8000"/>
<stop offset="1" stop-color="#FF8A00"/>
</linearGradient>
<linearGradient id="paint15_linear" x1="252.571" y1="23.5522" x2="249.243" y2="25.0174" gradientUnits="userSpaceOnUse">
<stop stop-color="#FF8000"/>
<stop offset="1" stop-color="#FF8A00"/>
</linearGradient>
<linearGradient id="paint16_linear" x1="248.871" y1="21.9375" x2="245.525" y2="22.922" gradientUnits="userSpaceOnUse">
<stop stop-color="#FF8000"/>
<stop offset="1" stop-color="#FF8A00"/>
</linearGradient>
<linearGradient id="paint17_linear" x1="250.855" y1="27.1531" x2="247.556" y2="28.76" gradientUnits="userSpaceOnUse">
<stop stop-color="#FF8000"/>
<stop offset="1" stop-color="#FF8A00"/>
</linearGradient>
<linearGradient id="paint18_linear" x1="244.31" y1="22.1227" x2="241.18" y2="22.3908" gradientUnits="userSpaceOnUse">
<stop stop-color="#FF8000"/>
<stop offset="1" stop-color="#FF8A00"/>
</linearGradient>
<linearGradient id="paint19_linear" x1="197.935" y1="50.6403" x2="181.465" y2="80.0115" gradientUnits="userSpaceOnUse">
<stop stop-color="#FF8000"/>
<stop offset="1" stop-color="#FF8A00"/>
</linearGradient>
<linearGradient id="paint20_linear" x1="199.399" y1="72.6742" x2="198.657" y2="73.8867" gradientUnits="userSpaceOnUse">
<stop stop-color="#FF8000"/>
<stop offset="1" stop-color="#FF8A00"/>
</linearGradient>
<linearGradient id="paint21_linear" x1="192.314" y1="62.2966" x2="187.894" y2="72.1601" gradientUnits="userSpaceOnUse">
<stop stop-color="#FF8000"/>
<stop offset="1" stop-color="#FF8A00"/>
</linearGradient>
<linearGradient id="paint22_linear" x1="182.562" y1="67.7906" x2="181.82" y2="69.0032" gradientUnits="userSpaceOnUse">
<stop stop-color="#FF8000"/>
<stop offset="1" stop-color="#FF8A00"/>
</linearGradient>
<linearGradient id="paint23_linear" x1="1287.689" y1="63.4161" x2="186.948" y2="64.6286" gradientUnits="userSpaceOnUse">
<stop stop-color="#FF8000"/>
<stop offset="1" stop-color="#FF8A00"/>
</linearGradient>
<linearGradient id="paint24_linear" x1="192.817" y1="59.041" x2="192.075" y2="60.2545" gradientUnits="userSpaceOnUse">
<stop stop-color="#FF8000"/>
<stop offset="1" stop-color="#FF8A00"/>
</linearGradient>
<linearGradient id="paint25_linear" x1="196.099" y1="62.657" x2="195.358" y2="63.8705" gradientUnits="userSpaceOnUse">
<stop stop-color="#FF8000"/>
<stop offset="1" stop-color="#FF8A00"/>
</linearGradient>
<linearGradient id="paint26_linear" x1="199.381" y1="66.2735" x2="198.64" y2="67.4869" gradientUnits="userSpaceOnUse">
<stop stop-color="#FF8000"/>
<stop offset="1" stop-color="#FF8A00"/>
</linearGradient>
<linearGradient id="paint27_linear" x1="189.126" y1="75.0233" x2="188.385" y2="76.2358" gradientUnits="userSpaceOnUse">
<stop stop-color="#FF8000"/>
<stop offset="1" stop-color="#FF8A00"/>
</linearGradient>
<linearGradient id="paint28_linear" x1="185.844" y1="71.4071" x2="185.103" y2="72.6196" gradientUnits="userSpaceOnUse">
<stop stop-color="#FF8000"/>
<stop offset="1" stop-color="#FF8A00"/>
</linearGradient>
<linearGradient id="paint29_linear" x1="194.253" y1="70.6488" x2="193.512" y2="71.8613" gradientUnits="userSpaceOnUse">
<stop stop-color="#FF8000"/>
<stop offset="1" stop-color="#FF8A00"/>
</linearGradient>
<linearGradient id="paint30_linear" x1="331.62" y1="73.4823" x2="298.96" y2="83.4098" gradientUnits="userSpaceOnUse">
<stop stop-color="#FF8000"/>
<stop offset="1" stop-color="#FF8A00"/>
</linearGradient>
<linearGradient id="paint31_linear" x1="296.628" y1="30.525" x2="314.062" y2="46.5541" gradientUnits="userSpaceOnUse">
<stop stop-color="#FF8000"/>
<stop offset="1" stop-color="#FF8A00"/>
</linearGradient>
<clipPath id="clip0">
<rect width="25.4659" height="25.6077" fill="white" transform="translate(0 188.392)"/>
</clipPath>
<clipPath id="clip1">
<rect width="25.4659" height="25.6077" fill="white" transform="translate(184.864 11.521)"/>
</clipPath>
<clipPath id="clip2">
<rect width="24.5227" height="23.7786" fill="white" transform="translate(287.67 120.354)"/>
</clipPath>
<clipPath id="clip3">
<rect width="39.3995" height="40.0414" fill="white" transform="matrix(-0.499064 -0.866565 0.879358 -0.476162 242.254 132.407)"/>
</clipPath>
</defs>
</svg>
