<svg width="89" height="90" viewBox="0 0 89 90" fill="none" xmlns="http://www.w3.org/2000/svg">
<path d="M33.3364 28.0698V24.6852V5.37751C33.3364 3.17853 35.1177 1.39014 37.3222 1.39014H82.7848C84.9875 1.39014 86.7705 3.17811 86.7708 5.37737V5.37751V46.5933C86.7708 48.7937 84.9867 50.5791 82.785 50.5791H69.7514L76.917 83.1142L33.3364 28.0698ZM33.3364 28.0698L35.5364 25.4977L37.5144 23.185L37.5149 23.1844C38.2614 22.3106 39.2498 21.7642 40.3212 21.5336L41.3082 21.3212V20.3116V9.36384M33.3364 28.0698L41.3082 9.36384M41.3082 9.36384H78.7986V42.6068H41.3084V37.8735V34.4885L39.1084 37.0611L37.8772 38.5008L41.3082 9.36384ZM50.5319 50.5791L43.3652 83.1161L43.3652 83.1164C42.8807 85.318 44.2724 87.4948 46.4744 87.9803L46.4753 87.9804C48.6582 88.46 50.8529 87.0786 51.335 84.8723C51.3351 84.8719 51.3352 84.8715 51.3353 84.8711L58.8878 50.5793H61.3949L68.9479 84.8735L68.9479 84.8738C69.3679 86.7786 71.0562 88.0765 72.9303 88.0749L50.5319 50.5791ZM50.5319 50.5791H37.3222C35.1187 50.5791 33.3364 48.7932 33.3364 46.5933V41.5037V40.3651L34.4701 40.2592C35.7932 40.1355 37.0129 39.5088 37.8764 38.5018L50.5319 50.5791ZM73.8114 87.9803L73.8109 87.9804C73.513 88.0459 73.2169 88.0748 72.9318 88.0749L73.8114 87.9803ZM73.8114 87.9803C76.0126 87.495 77.4052 85.3189 76.9174 83.1162L73.8114 87.9803Z" stroke="#5C5C5C" stroke-width="2.5"/>
<path d="M61.0535 18.6226C60.8379 18.0791 60.2266 17.8122 59.6834 18.0274L43.565 23.7165C42.0857 22.5712 39.9514 22.7758 38.7178 24.2106L33.6032 30.1834L29.0681 26.2959C29.098 26.617 29.166 26.9289 29.166 27.2583V35.6974L31.6891 37.8593C33.1864 39.1417 35.4263 38.9435 36.6782 37.4752L42.767 30.3552L47.6777 27.4823L60.6011 19.9212C61.0479 19.6636 61.2459 19.1131 61.0535 18.6226Z" fill="#5C5C5C"/>
<path d="M19.2106 20.137H16.1732C13.8476 20.137 11.8026 21.2673 10.5027 22.9902L1.17916 31.5742C-0.27359 32.8683 -0.405356 35.1099 0.902866 36.5713L8.50964 45.0619C9.8065 46.5139 12.0514 46.6423 13.504 45.3373C14.9604 44.032 15.0834 41.7964 13.7784 40.3417L8.53515 34.4867L15.9825 27.8225L11.6451 33.7155L15.888 38.4526C18.2325 41.0725 18.0115 45.098 15.3927 47.4443C13.6048 49.0472 11.1649 49.4232 9.04963 48.684C9.04963 48.684 9.08249 65.0515 9.08249 82.58C9.08249 84.9245 10.9828 86.825 13.3275 86.825C15.6697 86.825 17.5725 84.9245 17.5725 82.58C17.5725 65.0569 17.5725 75.0566 17.5725 57.2804H20.404C20.404 75.0437 20.404 65.0515 20.404 82.58C20.404 83.804 20.0627 84.9375 19.5186 85.9407C20.2309 86.4886 21.1172 86.825 22.0833 86.825C24.4292 86.825 26.3295 84.9245 26.3295 82.58C26.3295 65.0569 26.3349 72.4028 26.3349 27.2591C26.3353 23.3256 23.1465 20.137 19.2106 20.137Z" fill="#5C5C5C"/>
<path d="M13.9103 17.5887C15.0453 18.1787 16.3196 18.5448 17.6885 18.5448C19.0609 18.5448 20.3352 18.1787 21.4735 17.5877C24.1305 16.2111 25.962 13.4706 25.962 10.2721C25.962 5.7029 22.2578 2 17.6883 2C13.1195 2 9.41626 5.7029 9.41626 10.2721C9.41643 13.4724 11.2498 16.2139 13.9103 17.5887Z" fill="#5C5C5C"/>
</svg>
